#!OML:ASF \\sashay\E\Suitcase\Project 1\Capture day 1\Session 1\Male1.ASF
:FULLY-SPECIFIED
:DEGREES
72
root 1.06068 17.4697 -35.1068 5.85247 1.74844 -2.33426
lowerback 0.881135 -2.09328 2.64248
upperback -1.8293 -2.68817 2.41373
thorax -2.37805 -1.36698 1.07871
lowerneck -17.6161 -0.189592 -1.85844
upperneck 15.7859 0.172121 0.277333
head 7.77079 -0.00502106 0.415755
rclavicle 5.32246e-014 -2.34566e-014
rhumerus -41.7936 -25.2891 -63.1849
rradius 18.8109
rwrist -0.983374
rhand -16.5624 17.3022
rfingers 7.12502
rthumb 9.65761 -12.4564
lclavicle 5.32246e-014 -2.34566e-014
lhumerus -39.0629 7.95524 81.8449
lradius 35.0523
lwrist -5.16722
lhand -2.0488 41.9281
lfingers 7.12502
lthumb 23.6266 70.4965
rfemur -11.6837 1.44268 25.9501
rtibia 26.8152
rfoot -21.0337 -6.62466
rtoes 2.30753
lfemur -14.2095 -6.22181 -19.5088
ltibia 30.6847
lfoot -21.3203 4.01433
ltoes 2.93688
73
root 1.07163 17.4691 -35.1067 5.88798 1.92224 -2.16208
lowerback 0.729678 -2.13995 2.56772
upperback -1.72502 -2.76322 2.34946
thorax -2.18507 -1.4023 1.04702
lowerneck -17.9734 -0.161117 -1.88269
upperneck 15.958 0.210758 0.355449
head 7.88934 0.0186862 0.450938
rclavicle -6.16232e-015 1.82882e-014
rhumerus -41.6519 -25.3427 -63.2689
rradius 18.8367
rwrist -1.13892
rhand -16.4517 17.4074
rfingers 7.12502
rthumb 9.76436 -12.3462
lclavicle -6.16232e-015 1.82882e-014
lhumerus -38.8631 7.96207 81.8446
lradius 34.9971
lwrist -5.05809
lhand -1.79809 41.8198
lfingers 7.12502
lthumb 23.867 70.3569
rfemur -11.7615 1.035 25.7291
rtibia 26.9024
rfoot -20.9369 -6.54616
rtoes 1.75784
lfemur -14.1837 -6.4016 -19.7326
ltibia 30.6285
lfoot -21.1687 3.96095
ltoes 3.19507
74
root 1.07397 17.4659 -35.1068 5.84954 1.84743 -2.23076
lowerback 0.954718 -2.10296 2.64834
upperback -1.88411 -2.69693 2.35988
thorax -2.47877 -1.37272 1.02523
lowerneck -17.7892 -0.171438 -1.92686
upperneck 16.0688 0.197066 0.393383
head 7.89438 0.0125226 0.469234
rclavicle -1.90336e-014 -2.38542e-015
rhumerus -41.9246 -25.2653 -63.119
rradius 18.7564
rwrist -0.9303
rhand -16.6519 17.2173
rfingers 7.12502
rthumb 9.57123 -12.5453
lclavicle -1.90336e-014 -2.38542e-015
lhumerus -39.126 7.98491 81.7994
lradius 34.875
lwrist -5.21758
lhand -2.01877 41.7914
lfingers 7.12502
lthumb 23.6554 70.356
rfemur -11.7372 1.14062 25.7754
rtibia 26.9461
rfoot -21.0821 -6.3943
rtoes 1.3392
lfemur -14.1346 -6.41997 -19.6862
ltibia 30.5692
lfoot -21.1554 4.20177
ltoes 2.44095
75
root 1.07543 17.4646 -35.1071 5.89741 1.82624 -2.11908
lowerback 0.86781 -2.08204 2.50474
upperback -1.86591 -2.67684 2.34586
thorax -2.40486 -1.35978 1.08584
lowerneck -17.6863 -0.206999 -1.94154
upperneck 15.8528 0.161485 0.331396
head 7.80524 -0.0101704 0.446224
rclavicle 5.93869e-015 -1.03368e-014
rhumerus -41.8995 -25.3176 -63.0792
rradius 18.7404
rwrist -1.03674
rhand -16.5017 17.11
rfingers 7.12502
rthumb 9.71614 -12.6459
lclavicle 5.93869e-015 -1.03368e-014
lhumerus -39.0881 7.98535 81.8442
lradius 34.8625
lwrist -5.15227
lhand -2.06102 41.8851
lfingers 7.12502
lthumb 23.6149 70.455
rfemur -11.8071 1.17048 25.6606
rtibia 27.0009
rfoot -20.9447 -6.61627
rtoes 1.14318
lfemur -14.1428 -6.36977 -19.8028
ltibia 30.5437
lfoot -21.2533 4.21498
ltoes 1.68227
76
root 1.07932 17.467 -35.1091 5.96162 1.84884 -2.1611
lowerback 0.851587 -2.08352 2.57052
upperback -1.92111 -2.67617 2.35083
thorax -2.4555 -1.3611 1.05525
lowerneck -17.706 -0.174487 -2.09081
upperneck 15.962 0.194358 0.595142
head 7.8439 0.0221804 0.562378
rclavicle -2.36057e-015 -1.19271e-015
rhumerus -42.096 -25.5019 -62.8533
rradius 18.6891
rwrist -0.644701
rhand -16.5804 17.18
rfingers 7.12502
rthumb 9.64021 -12.5794
lclavicle -2.36057e-015 -1.19271e-015
lhumerus -39.0941 8.1096 81.7571
lradius 34.5966
lwrist -5.43757
lhand -2.22828 41.657
lfingers 7.12502
lthumb 23.4544 70.2474
rfemur -11.8959 1.16006 25.6742
rtibia 27.004
rfoot -21.1052 -6.41924
rtoes 0.915735
lfemur -14.2616 -6.28325 -19.7816
ltibia 30.565
lfoot -21.1335 4.0778
ltoes 2.25726
77
root 1.08062 17.4687 -35.1081 5.90267 1.76777 -2.18181
lowerback 0.863811 -2.05143 2.59515
upperback -1.85073 -2.63512 2.32594
thorax -2.39209 -1.34064 1.0132
lowerneck -17.6744 -0.237545 -1.95984
upperneck 15.7797 0.0983952 0.46327
head 7.77939 -0.0275369 0.485388
rclavicle 3.58558e-014 -2.74323e-014
rhumerus -42.0664 -25.6127 -62.8621
rradius 18.6582
rwrist -0.584971
rhand -16.6269 17.0394
rfingers 7.12502
rthumb 9.5953 -12.7221
lclavicle 3.58558e-014 -2.74323e-014
lhumerus -39.0838 8.00121 81.7699
lradius 34.6765
lwrist -5.35544
lhand -1.87078 42.2327
lfingers 7.12502
lthumb 23.7973 70.7789
rfemur -11.831 1.30052 25.6921
rtibia 27.0052
rfoot -20.9126 -6.51757
rtoes 0.724922
lfemur -14.179 -6.31076 -19.765
ltibia 30.5995
lfoot -21.1897 4.02683
ltoes 2.68911
78
root 1.08463 17.4651 -35.1109 5.93148 1.81797 -2.27574
lowerback 1.06175 -2.07386 2.6817
upperback -2.05061 -2.6466 2.37934
thorax -2.71126 -1.35004 1.03439
lowerneck -17.3387 -0.299716 -1.80467
upperneck 15.5735 0.00656866 0.248107
head 7.65423 -0.0821573 0.377591
rclavicle -2.58917e-014 1.82882e-014
rhumerus -42.3864 -25.2516 -62.7976
rradius 18.7245
rwrist -0.668528
rhand -16.642 17.2814
rfingers 7.12502
rthumb 9.58081 -12.4807
lclavicle -2.58917e-014 1.82882e-014
lhumerus -39.4261 8.14793 81.6959
lradius 34.6183
lwrist -5.55823
lhand -1.90392 41.8836
lfingers 7.12502
lthumb 23.7655 70.434
rfemur -11.8922 1.16792 25.7889
rtibia 27.0176
rfoot -21.0199 -6.5708
rtoes 1.49652
lfemur -14.2613 -6.32092 -19.6825
ltibia 30.602
lfoot -21.2248 4.21326
ltoes 1.73002
79
root 1.08774 17.4673 -35.1078 5.91162 1.86029 -2.20599
lowerback 0.927473 -2.05893 2.50969
upperback -1.9346 -2.63927 2.4336
thorax -2.50538 -1.34099 1.17645
lowerneck -17.4727 -0.293784 -1.90115
upperneck 15.6546 0.0408972 0.258593
head 7.70399 -0.0711003 0.400932
rclavicle 8.79622e-015 -1.59028e-014
rhumerus -42.2575 -25.5502 -62.5781
rradius 18.5897
rwrist -0.286229
rhand -16.821 17.1093
rfingers 7.12502
rthumb 9.40802 -12.6608
lclavicle 8.79622e-015 -1.59028e-014
lhumerus -39.2247 8.29943 81.7959
lradius 34.5439
lwrist -5.4346
lhand -1.7785 41.6943
lfingers 7.12502
lthumb 23.8858 70.229
rfemur -11.8335 1.11984 25.6928
rtibia 27.0132
rfoot -21.0459 -6.48053
rtoes 1.86972
lfemur -14.1833 -6.35627 -19.7577
ltibia 30.6324
lfoot -21.223 3.90003
ltoes 2.71545
80
root 1.09025 17.4635 -35.1029 5.87206 1.62821 -2.18871
lowerback 0.835283 -1.98046 2.48612
upperback -1.85457 -2.5424 2.39803
thorax -2.3716 -1.29165 1.14394
lowerneck -17.4879 -0.296193 -1.92519
upperneck 15.5419 0.028787 0.337031
head 7.66932 -0.0697746 0.429208
rclavicle 1.59773e-014 1.35174e-014
rhumerus -42.349 -25.8076 -62.4868
rradius 18.6377
rwrist -0.0945571
rhand -16.3966 17.274
rfingers 7.12502
rthumb 9.81751 -12.4772
lclavicle 1.59773e-014 1.35174e-014
lhumerus -39.2633 8.24638 81.7831
lradius 34.5976
lwrist -5.48149
lhand -1.89321 41.431
lfingers 7.12502
lthumb 23.7758 69.98
rfemur -11.8094 1.23121 25.6518
rtibia 27.0386
rfoot -21.0148 -6.4999
rtoes 1.53435
lfemur -14.1455 -6.31653 -19.8314
ltibia 30.6352
lfoot -21.229 4.3408
ltoes 1.55171
